<?xml version="1.0" standalone="no"?>
<!DOCTYPE svg PUBLIC "-//W3C//DTD SVG 20010904//EN"
 "http://www.w3.org/TR/2001/REC-SVG-20010904/DTD/svg10.dtd">
<svg version="1.0" xmlns="http://www.w3.org/2000/svg"
 width="466.000000pt" height="466.000000pt" viewBox="0 0 466.000000 466.000000"
 preserveAspectRatio="xMidYMid meet">
<metadata>
Created by potrace 1.11, written by Peter Selinger 2001-2013
</metadata>
<g transform="translate(0.000000,466.000000) scale(0.100000,-0.100000)"
fill="#000000" stroke="none">
<path d="M2822 3970 c-119 -24 -80 11 -1475 -1374 -720 -715 -1312 -1307
-1318 -1317 -5 -10 -9 -32 -9 -51 0 -29 22 -54 208 -240 200 -201 209 -208
247 -208 39 0 50 10 1222 1182 l1183 1183 628 -628 c547 -546 631 -627 657
-627 25 0 61 32 242 213 194 194 213 216 213 247 0 30 -17 50 -170 205 l-170
171 0 366 c0 248 -4 375 -11 391 -18 40 -49 47 -214 47 -148 0 -155 -1 -182
-24 -28 -24 -28 -24 -33 -181 l-5 -157 -250 253 c-343 347 -495 485 -570 520
-69 31 -132 41 -193 29z"/>
<path d="M2788 1720 c-180 -28 -346 -165 -409 -338 -20 -56 -24 -86 -24 -177
0 -135 24 -211 97 -309 193 -257 552 -284 777 -59 84 84 115 138 141 238 24
93 25 146 5 240 -21 98 -58 167 -131 245 -121 128 -286 186 -456 160z"/>
</g>
</svg>
